<svg width="1000" height="1000" xmlns="http://www.w3.org/2000/svg">

  <defs>
    <g id="h_joints">
      <rect x="0" y="110" width="23" height="20" fill="black"/>
      <rect x="0" y="490" width="23" height="20" fill="black"/>
      <rect x="0" y="870" width="23" height="20" fill="black"/>
    </g>

    <g id="v_joints">
      <rect x="110" y="0" width="20" height="23" fill="black"/>
      <rect x="490" y="0" width="20" height="23" fill="black"/>
      <rect x="870" y="0" width="20" height="23" fill="black"/>
    </g>

    <g id="base-tile">
      <rect x="0" y="0" width="1000" height="1000" fill="white"/>
      <use href="#h_joints" x="0" y="0"/>    <!--WEST DOCKERS-->
      <use href="#h_joints" x="977" y="0"/>  <!--EAST DOCKERS-->
      <use href="#v_joints" x="0" y="0"/>    <!--NORTH DOCKERS-->
      <use href="#v_joints" x="0" y="977"/>  <!--SOUTH DOCKERS-->
    </g>
  </defs>

  <use href="#base-tile" x="0" y="0"/>

  <!--PATHS-->
  <rect x="110" y="0" width="20" height="1000" fill="black"/>
  <rect x="0" y="490" width="530" height="20" fill="black"/>
  <rect x="490" y="0" width="20" height="530" fill="black"/>
  <rect x="460" y="110" width="540" height="20" fill="black"/>
  <path d="M 500 978 Q 520 520, 978 500" fill="none" stroke="black" stroke-width="20"/>

  <!--INFO-->
  <rect x="150" y="530" width="115" height="40" fill="#006eff"/>
  <text x="160" y="558" font-family="Verdana" font-size="25" fill="#ffffff">astrago</text>

  <rect x="530" y="530" width="115" height="40" fill="#006eff"/>
  <text x="542" y="558" font-family="Verdana" font-size="25" fill="#ffffff">aventis</text>

  <rect x="530" y="150" width="115" height="40" fill="#006eff"/>
  <text x="542" y="178" font-family="Verdana" font-size="25" fill="#ffffff">arconis</text>


</svg>
