<svg width="1000" height="1000" xmlns="http://www.w3.org/2000/svg">

  <defs>
    <g id="h_joints">
      <rect x="0" y="110" width="23" height="20" fill="black"/>
      <rect x="0" y="490" width="23" height="20" fill="black"/>
      <rect x="0" y="870" width="23" height="20" fill="black"/>
    </g>

    <g id="v_joints">
      <rect x="110" y="0" width="20" height="23" fill="black"/>
      <rect x="490" y="0" width="20" height="23" fill="black"/>
      <rect x="870" y="0" width="20" height="23" fill="black"/>
    </g>

    <g id="base-tile">
      <rect x="0" y="0" width="1000" height="1000" fill="white"/>
      <use href="#h_joints" x="0" y="0"/>    <!--WEST DOCKERS-->
      <use href="#h_joints" x="977" y="0"/>  <!--EAST DOCKERS-->
      <use href="#v_joints" x="0" y="0"/>    <!--NORTH DOCKERS-->
      <use href="#v_joints" x="0" y="977"/>  <!--SOUTH DOCKERS-->
    </g>
  </defs>

  <use href="#base-tile" x="0" y="0"/>

  <!--PATHS-->
  <rect x="490" y="0" width="20" height="1000"> </rect>  
  <rect x="0" y="870" width="150" height="20"> </rect>
  <rect x="110" y="850" width="20" height="130"> </rect>
  <rect x="110" y="0" width="20" height="130"> </rect>
  <rect x="0" y="110" width="150" height="20"> </rect>
  <rect x="450" y="110.3" width="530" height="20"> </rect>
  <rect x="870" y="470" width="20" height="510"> </rect>
  <rect x="470" y="490" width="510" height="20"> </rect>
  <path d="M120,880 C500,900 350,150 175, 515 Q 115 660 120.5 880" stroke="black" fill="transparent" stroke-width="20"/>
  <path d="M120.2 122 C 100,500 250,150 452, 120" stroke="black" fill="transparent" stroke-width="20"/>

  <!--INFO-->
  <rect x="155" y="915" width="110" height="40" fill="#e95100"/>
  <text x="167" y="943" font-family="Verdana" font-size="25" fill="#ffffff">calyta</text>

  <rect x="821" y="415" width="115" height="40" fill="#e95100"/>
  <text x="836" y="443" font-family="Verdana" font-size="25" fill="#ffffff">corvex</text>

  <rect x="535" y="152" width="102" height="40" fill="#e95100"/>
  <text x="543" y="179" font-family="Verdana" font-size="25" fill="#ffffff">cygnar</text>

  <rect x="535" y="425" width="100" height="40" fill="#e95100"/>
  <text x="547" y="453" font-family="Verdana" font-size="25" fill="#ffffff">cerdia</text>

  <rect x="175" y="100" width="97" height="40" fill="#e95100"/>
  <text x="187" y="128" font-family="Verdana" font-size="25" fill="#ffffff">celiox</text>

</svg>
