<svg width="1000" height="1000" xmlns="http://www.w3.org/2000/svg">

  <defs>
    <g id="h_joints">
      <rect x="0" y="110" width="23" height="20" fill="black"/>
      <rect x="0" y="490" width="23" height="20" fill="black"/>
      <rect x="0" y="870" width="23" height="20" fill="black"/>
    </g>

    <g id="v_joints">
      <rect x="110" y="0" width="20" height="23" fill="black"/>
      <rect x="490" y="0" width="20" height="23" fill="black"/>
      <rect x="870" y="0" width="20" height="23" fill="black"/>
    </g>

    <g id="base-tile">
      <rect x="0" y="0" width="1000" height="1000" fill="white"/>
      <use href="#h_joints" x="0" y="0"/>    <!--WEST DOCKERS-->
      <use href="#h_joints" x="977" y="0"/>  <!--EAST DOCKERS-->
      <use href="#v_joints" x="0" y="0"/>    <!--NORTH DOCKERS-->
      <use href="#v_joints" x="0" y="977"/>  <!--SOUTH DOCKERS-->
    </g>
  </defs>

  <use href="#base-tile" x="0" y="0"/>

  <!--PATHS-->
  <rect x="0" y="110" width="1000" height="20" fill="black"/>
  <rect x="110" y="0" width="20" height="220" fill="black"/>
  <rect x="490" y="0" width="20" height="150" fill="black"/>
  <rect x="870" y="0" width="20" height="220" fill="black"/>
  <rect x="870" y="120" width="20" height="410" fill="black"/>
  <rect x="790" y="490" width="300" height="20" fill="black"/>
  <rect x="936" y="870" width="200" height="20" fill="black"/>
  <path d="M 730 425 Q 600 50, 490 530 T 940 879.5" stroke="black" fill="transparent" stroke-width="20"/>
  <path d="M 728.7 421 Q 750 500 795 500 " stroke="black" fill="transparent" stroke-width="20"/>
  <path d="M 224.6 884 Q 0 680, 230 610 T 290 400 Q 140 320 119.7 218" stroke="black" fill="transparent" stroke-width="20"/>
  <path d="M 500 950 C 500 900, 300 950 220 880 " stroke="black" fill="transparent" stroke-width="20"/>
  <rect x="490" y="948" width="20" height="30" fill="black"/>
  <rect x="0" y="490" width="150" height="20" fill="black"/>
  <rect x="110" y="470" width="20" height="60" fill="black"/>

  <!--INFO-->
  <rect x="67" y="410" width="110" height="40" fill="#03c700"/>
  <text x="83" y="438" font-family="Verdana" font-size="25" fill="#ffffff">brivon</text>

  <rect x="822" y="550" width="100" height="40" fill="#03c700"/>
  <text x="835" y="579" font-family="Verdana" font-size="25" fill="#ffffff">beltix</text>

  <rect x="735" y="150" width="115" height="40" fill="#03c700"/>
  <text x="753" y="178" font-family="Verdana" font-size="25" fill="#ffffff">bylora</text>

  <rect x="440" y="170" width="115" height="40" fill="#03c700"/>
  <text x="449" y="198" font-family="Verdana" font-size="25" fill="#ffffff">bomvor</text>

  <rect x="150" y="150" width="100" height="40" fill="#03c700"/>
  <text x="157" y="179" font-family="Verdana" font-size="25" fill="#ffffff">bunyol</text>
</svg>
